Coordinates
version=1
nRows=11
nColumns=36
inDegrees=yes

Units are S.I. units (second, meters, Newtons, ...)
If the header above contains a line with 'inDegrees', this indicates whether rotational values are in degrees (yes) or radians (no).

endheader
time	pelvis_tilt	pelvis_list	pelvis_rotation	pelvis_tx	pelvis_ty	pelvis_tz	hip_flexion_r	hip_adduction_r	hip_rotation_r	knee_angle_r	knee_angle_r_beta	ankle_angle_r	subtalar_angle_r	mtp_angle_r	hip_flexion_l	hip_adduction_l	hip_rotation_l	knee_angle_l	knee_angle_l_beta	ankle_angle_l	subtalar_angle_l	mtp_angle_l	lumbar_extension	lumbar_bending	lumbar_rotation	arm_flex_r	arm_add_r	arm_rot_r	elbow_flex_r	pro_sup_r	arm_flex_l	arm_add_l	arm_rot_l	elbow_flex_l	pro_sup_l
      5.85000000	     -6.11361133	     -1.95148560	      8.92173841	      0.71901776	      0.89299611	     -0.01551422	     12.12108012	     -2.79565444	     -8.04144697	      7.71377974	      0.13463085	     11.57473923	     -4.08747552	     -7.49999987	      9.25560130	     -1.94422858	     -2.93140510	      5.72552341	      0.09992923	     16.78971152	      5.28570577	     -7.49999987	     -2.75993089	     -1.52064490	     -6.20098638	      3.66221403	    -22.57354750	     14.14935684	    107.88608727	     79.61497680	     -8.64731690	    -24.19005713	      0.58565036	    124.29574331	     76.11952205
      5.86666670	     -5.95422300	     -1.90199337	      8.80246705	      0.71754704	      0.89556447	     -0.01445641	     11.78821086	     -2.76630655	     -8.06311201	      7.18548211	      0.12541032	     11.44788338	     -3.83658973	     -7.49999987	      9.02682408	     -1.90754050	     -2.72070078	      5.48424151	      0.09571807	     16.66369734	      5.13613655	     -7.49999987	     -2.71767192	     -1.59121454	     -6.07975963	      3.29631232	    -22.40777702	     13.17533602	    107.64045305	     77.85554658	     -8.13532473	    -23.93272373	      0.77456639	    123.86834785	     74.76706828
      5.88333330	     -5.76941392	     -1.84588777	      8.75562756	      0.71701170	      0.89556572	     -0.01439384	     11.43727082	     -2.76559026	     -8.08873541	      6.77400570	      0.11822870	     11.67578403	     -3.49223675	     -7.49999987	      8.71721045	     -1.87875213	     -2.48271509	      5.19159592	      0.09061044	     16.77475052	      5.00328689	     -7.49999987	     -2.71115458	     -1.63654577	     -4.40968579	      0.55611664	    -21.84087384	      8.96099412	    108.74816978	     83.83478631	     -5.70854307	    -23.70741535	      2.58440514	    122.29423264	     80.23473802
      5.90000000	     -5.61257767	     -1.78574205	      8.71848930	      0.71589553	      0.89733896	     -0.01400361	     11.08587706	     -2.73231920	     -7.79916754	      6.32518001	      0.11039522	     11.32025291	     -3.82867454	     -7.49999987	      8.39617067	     -1.86947269	     -2.38368432	      4.76880992	      0.08323143	     16.70347581	      5.08431755	     -7.49999987	     -2.65496393	     -1.68515395	     -4.63762284	      0.10396471	    -21.35729482	      8.45282907	    108.59803292	     81.86916908	     -5.30829307	    -23.37872001	      2.62550919	    122.00504554	     78.42459778
      5.91666670	     -5.39047548	     -1.72630900	      8.69944449	      0.71466884	      0.89497761	     -0.01411888	     10.71533806	     -2.72608937	     -7.62354365	      5.92248264	      0.10336682	     11.42919145	     -3.60664832	     -7.49999987	      7.97440637	     -1.82052085	     -2.36434739	      4.29097131	      0.07489158	     16.86207903	      5.12074549	     -7.49999987	     -2.77959226	     -1.69946878	     -4.71383007	     -0.85607655	    -20.71969213	      7.15404488	    109.00605978	     81.85910986	     -5.24328813	    -22.64291084	      2.21346563	    122.03157813	     78.43865535
      5.93333330	     -5.33237866	     -1.62814301	      8.57470657	      0.71494253	      0.89713102	     -0.01337939	     10.47508383	     -2.74025301	     -7.39879617	      5.55239118	      0.09690751	     11.27292063	     -3.64511705	     -7.49999987	      7.69336733	     -1.76164572	     -2.33876597	      3.82343816	      0.06673158	     16.64473127	      5.03330969	     -7.49999987	     -2.70912660	     -1.78927125	     -4.62519722	     -1.64371409	    -20.18354626	      6.52181500	    109.27174032	     80.71747070	     -5.10364049	    -22.13934897	      2.44512954	    121.92111073	     77.44145397
      5.95000000	     -5.42350474	     -1.56614306	      8.46993432	      0.71305237	      0.89633263	     -0.01420125	     10.48693795	     -2.79870108	     -7.24639183	      5.25507463	      0.09171835	     11.55258195	     -3.19359165	     -7.49999987	      7.60596598	     -1.65668927	     -2.31146865	      3.43719266	      0.05999033	     16.77912073	      5.10699829	     -7.49999987	     -2.58066294	     -1.74473774	     -3.12925364	     -3.91701775	    -19.52545471	      3.58897582	    110.49821174	     83.49171088	     -3.30864883	    -21.59284709	      4.21633128	    120.79382006	     80.05006692
      5.96666670	     -5.47360624	     -1.51167053	      8.42854384	      0.71311336	      0.89455643	     -0.01327877	     10.45502356	     -2.79104666	     -6.74763363	      4.94838033	      0.08636553	     11.76270247	     -3.24258086	     -7.49999987	      7.47303412	     -1.58706677	     -2.23158550	      2.97267411	      0.05188295	     16.83366329	      5.09360146	     -7.49999987	     -2.47541407	     -1.70576150	     -3.25840991	     -4.37752438	    -19.22594915	      3.60039098	    110.93227980	     82.38158057	     -3.56265267	    -21.32610400	      4.24831553	    121.03768068	     78.99497768
      5.98333330	     -5.50159932	     -1.47250204	      8.27155894	      0.71338462	      0.89551211	     -0.01232197	     10.44593339	     -2.75050128	     -6.52041558	      4.81638124	      0.08406171	     11.90643312	     -3.12429434	     -7.49999987	      7.29669906	     -1.56315044	     -2.33369057	      2.57099805	      0.04487238	     16.90986666	      5.35760085	     -7.49999987	     -2.40347804	     -1.65629036	     -3.19694405	     -4.82181164	    -18.89257096	      3.50882625	    111.07706175	     81.58143222	     -4.04461109	    -20.94589760	      4.15424943	    121.18026120	     78.23615727
      6.00000000	     -5.54279629	     -1.43094382	      8.22492866	      0.71291199	      0.89536580	     -0.01223132	     10.33990276	     -2.75998836	     -6.38340765	      4.62152817	      0.08066088	     11.70702840	     -3.20848844	     -7.49999987	      7.21075051	     -1.52594142	     -2.38954317	      2.28686460	      0.03991332	     16.70072724	      5.39473007	     -7.49999987	     -2.23229821	     -1.62285421	     -3.17756824	     -5.12143810	    -18.58391524	      3.73670969	    110.98117983	     80.10065682	     -4.29428017	    -20.69517203	      4.34948549	    121.08636139	     76.89462862
      6.01666670	     -5.54386875	     -1.38678311	      8.11036809	      0.71362441	      0.89530156	     -0.01236250	     10.20586736	     -2.75237764	     -6.17713360	      4.45121137	      0.07768829	     12.01178648	     -2.82929588	     -7.49999987	      7.08995069	     -1.51812734	     -2.91556271	      2.07559335	      0.03622594	     16.92270761	      6.13476109	     -7.49999987	     -2.16605563	     -1.55944880	     -3.46970320	     -5.20224610	    -18.34144878	      4.08680581	    110.63222606	     82.73981892	     -5.06148542	    -20.30257965	      3.89677600	    121.24002956	     78.96986360
